Coordinates
version=1
nRows=10
nColumns=28
inDegrees=yes

Units are S.I. units (second, meters, Newtons, ...)
Angles are in degrees.

endheader
time	pelvis_tilt	pelvis_list	pelvis_rotation	pelvis_tx	pelvis_ty	pelvis_tz	hip_flexion_r	hip_adduction_r	hip_rotation_r	knee_angle_r	ankle_angle_r	subtalar_angle_r	mtp_angle_r	hip_flexion_l	hip_adduction_l	hip_rotation_l	knee_angle_l	socket_flexion	socket_adduction	socket_rotation	socket_tx	socket_ty	socket_tz	foot_flex	lumbar_extension	lumbar_bending	lumbar_rotation
      0.00000000	     -1.55618401	     -8.69884785	    -12.60978031	     -0.87977336	      0.98198670	      0.32290563	    -22.28590814	      9.15896326	     13.91956430	     -7.14883819	     10.23023663	    -12.93025100	     14.34749837	     30.33452443	    -13.36571119	      3.16945238	     -4.04244467	      2.39515726	      0.67699073	      6.28405316	      0.03142312	      0.00154835	      0.02162997	      2.26999472	    -10.43157896	      5.76489634	     19.22831425
      0.00416667	     -1.60130337	     -8.73616762	    -12.55389864	     -0.87451725	      0.98126960	      0.32246351	    -22.42507109	      9.16156532	     13.97424940	     -7.34682113	     10.21446727	    -12.92616625	     14.37996430	     30.23948333	    -13.32017240	      3.13946494	     -4.07197488	      2.41861801	      0.67378322	      6.26933149	      0.03194027	      0.00132598	      0.02128626	      2.21179587	    -10.32666571	      5.80371575	     19.20125533
      0.00833333	     -0.71322220	     -8.59051273	    -12.81283445	     -0.86928941	      0.98215729	      0.32205371	    -23.12651645	      8.56517904	     13.22784493	     -8.12553054	      9.40403119	    -12.08129229	     19.54801614	     28.22149524	    -12.84769517	      2.47755495	     -3.61516244	      2.06730698	      0.27831688	      6.14217628	      0.02679692	      0.00041691	      0.02470781	      1.89367161	    -11.35745530	      5.43208399	     19.29923337
      0.01250000	     -0.77669917	     -8.61938295	    -12.73377694	     -0.86356519	      0.98136581	      0.32156072	    -23.25947292	      8.56769397	     13.28124359	     -8.33335560	      9.37426838	    -12.08565441	     19.55961311	     28.14833838	    -12.79051038	      2.46226241	     -3.65805671	      2.10159996	      0.28401291	      6.14502771	      0.02745211	      0.00012980	      0.02420251	      1.80728153	    -11.21091107	      5.46519880	     19.28408729
      0.01666667	     -0.84194192	     -8.66559345	    -12.64437254	     -0.85768088	      0.98056382	      0.32102827	    -23.36867858	      8.59775833	     13.33976778	     -8.61712817	      9.31454693	    -12.09674563	     19.56896306	     28.02580336	    -12.70813198	      2.43881985	     -3.68553490	      2.12699740	      0.27394071	      6.17635934	      0.02777463	     -0.00031458	      0.02415938	      1.65565660	    -11.03653351	      5.52814701	     19.26483736
      0.02083333	     -1.04061346	     -8.78025836	    -12.76897885	     -0.85191722	      0.97983487	      0.32042186	    -23.10080735	      8.65687228	     13.22575365	     -9.36096822	      9.00391718	    -12.24395192	     19.61087791	     27.70479347	    -12.61436508	      2.33747598	     -3.51798359	      2.01230329	     -0.00389558	      6.39438449	      0.02622420	     -0.00111066	      0.02640003	      0.97553375	    -10.89040774	      5.77605437	     19.14346862
      0.02500000	     -1.09806221	     -8.80731193	    -12.67314409	     -0.84575482	      0.97903702	      0.31986376	    -23.22828417	      8.65955375	     13.28766108	     -9.62489474	      8.94651297	    -12.24449319	     19.62037604	     27.60646209	    -12.54352616	      2.30015587	     -3.57302791	      2.05632461	      0.01704474	      6.38785668	      0.02694810	     -0.00158259	      0.02582892	      0.92078004	    -10.72949550	      5.80778713	     19.13435231
      0.02916667	     -1.28382515	     -8.84779888	    -12.84599895	     -0.83979074	      0.97837513	      0.31940501	    -22.88090516	      8.64764667	     13.12217025	    -10.53916452	      8.50757768	    -12.38874207	     19.71213208	     27.28921737	    -12.44137987	      2.03878514	     -3.45007164	      1.97295738	     -0.17446417	      6.51846155	      0.02566319	     -0.00231392	      0.02752851	      0.43676116	    -10.54538792	      5.94959786	     19.03821469
      0.03333333	     -1.33686512	     -8.86650201	    -12.75629245	     -0.83342527	      0.97763130	      0.31886694	    -23.00967572	      8.62777411	     13.20107245	    -10.80450803	      8.45044560	    -12.38087096	     19.72466506	     27.17005883	    -12.37436459	      2.05045412	     -3.51702030	      2.02856901	     -0.15737765	      6.56087751	      0.02643958	     -0.00287598	      0.02688123	      0.38239333	    -10.36989042	      5.96700972	     19.03552997
      0.03750000	     -1.57599668	     -8.73793236	    -12.97838120	     -0.82722609	      0.97698720	      0.31867431	    -22.52071784	      8.45106602	     13.00013843	    -11.82633221	      7.86776175	    -12.46082374	     20.07797431	     26.87408626	    -12.19118619	      1.63061877	     -3.38446464	      1.93138786	     -0.31131612	      6.82437704	      0.02506653	     -0.00347348	      0.02819434	      0.01873864	    -10.05948364	      5.86101209	     19.03224420
